%FSLAX46Y46*%
%MOMM*%
%AMPS18*
1,1,0.500000,-0.250000,0.375000*
1,1,0.500000,-0.250000,-0.375000*
21,1,1.000000,0.750000,0.000000,0.000000,180.000000*
21,1,0.500000,1.250000,0.000000,0.000000,180.000000*
1,1,0.500000,0.250000,0.375000*
1,1,0.500000,0.250000,-0.375000*
%
%ADD18PS18*%
%AMPS10*
1,1,0.240000,0.180000,-0.130000*
1,1,0.240000,0.180000,0.130000*
21,1,0.600000,0.260000,0.000000,0.000000,360.000000*
21,1,0.360000,0.500000,0.000000,0.000000,360.000000*
1,1,0.240000,-0.180000,-0.130000*
1,1,0.240000,-0.180000,0.130000*
%
%ADD10PS10*%
%AMPS17*
1,1,0.240000,-0.130000,-0.180000*
1,1,0.240000,0.130000,-0.180000*
21,1,0.600000,0.260000,0.000000,0.000000,270.000000*
21,1,0.360000,0.500000,0.000000,0.000000,270.000000*
1,1,0.240000,-0.130000,0.180000*
1,1,0.240000,0.130000,0.180000*
%
%ADD17PS17*%
%AMPS14*
1,1,0.240000,-0.180000,0.130000*
1,1,0.240000,-0.180000,-0.130000*
21,1,0.600000,0.260000,0.000000,0.000000,180.000000*
21,1,0.360000,0.500000,0.000000,0.000000,180.000000*
1,1,0.240000,0.180000,0.130000*
1,1,0.240000,0.180000,-0.130000*
%
%ADD14PS14*%
%AMPS11*
1,1,0.240000,0.130000,0.180000*
1,1,0.240000,-0.130000,0.180000*
21,1,0.600000,0.260000,0.000000,0.000000,90.000000*
21,1,0.360000,0.500000,0.000000,0.000000,90.000000*
1,1,0.240000,0.130000,-0.180000*
1,1,0.240000,-0.130000,-0.180000*
%
%ADD11PS11*%
%AMPS16*
1,1,0.340000,-0.480000,-0.180000*
1,1,0.340000,0.480000,-0.180000*
21,1,0.700000,0.960000,0.000000,0.000000,270.000000*
21,1,0.360000,1.300000,0.000000,0.000000,270.000000*
1,1,0.340000,-0.480000,0.180000*
1,1,0.340000,0.480000,0.180000*
%
%ADD16PS16*%
%AMPS12*
1,1,0.360000,-0.195000,-0.220000*
1,1,0.360000,0.195000,-0.220000*
21,1,0.800000,0.390000,0.000000,0.000000,270.000000*
21,1,0.440000,0.750000,0.000000,0.000000,270.000000*
1,1,0.360000,-0.195000,0.220000*
1,1,0.360000,0.195000,0.220000*
%
%ADD12PS12*%
%AMPS13*
1,1,0.200000,-0.100000,0.200000*
1,1,0.200000,-0.100000,-0.200000*
21,1,0.400000,0.400000,0.000000,0.000000,180.000000*
21,1,0.200000,0.600000,0.000000,0.000000,180.000000*
1,1,0.200000,0.100000,0.200000*
1,1,0.200000,0.100000,-0.200000*
%
%ADD13PS13*%
%AMPS15*
1,1,0.200000,0.200000,0.100000*
1,1,0.200000,-0.200000,0.100000*
21,1,0.400000,0.400000,0.000000,0.000000,90.000000*
21,1,0.200000,0.600000,0.000000,0.000000,90.000000*
1,1,0.200000,0.200000,-0.100000*
1,1,0.200000,-0.200000,-0.100000*
%
%ADD15PS15*%
G01*
%LPD*%
G01*
%LPD*%
G75*
D10*
X5200000Y1250000D03*
D10*
X6300000Y1250000D03*
D11*
X-21625000Y18700000D03*
D11*
X-21625000Y19800000D03*
D11*
X8125000Y5825000D03*
D11*
X8125000Y6925000D03*
D10*
X575000Y11250000D03*
D10*
X1675000Y11250000D03*
D12*
X-29476681Y1673331D03*
D12*
X-29476681Y173331D03*
D13*
X675000Y12375000D03*
D13*
X1575000Y12375000D03*
D11*
X-24125000Y18700000D03*
D11*
X-24125000Y19800000D03*
D14*
X5800000Y4500000D03*
D14*
X4700000Y4500000D03*
D11*
X7125000Y5825000D03*
D11*
X7125000Y6925000D03*
D11*
X6125000Y5825000D03*
D11*
X6125000Y6925000D03*
D11*
X16500000Y19200000D03*
D11*
X16500000Y20300000D03*
D11*
X9125000Y5825000D03*
D11*
X9125000Y6925000D03*
D11*
X10125000Y5825000D03*
D11*
X10125000Y6925000D03*
D15*
X-1950000Y-17185000D03*
D15*
X-1950000Y-18085000D03*
D11*
X9125000Y1325000D03*
D11*
X9125000Y2425000D03*
D16*
X-31851681Y-151669D03*
D16*
X-31851681Y1748331D03*
D17*
X7375000Y2425000D03*
D17*
X7375000Y1325000D03*
D18*
X-26476569Y1423347D03*
D18*
X-24476569Y1423347D03*
D13*
X675000Y13625000D03*
D13*
X1575000Y13625000D03*
D11*
X19000000Y19200000D03*
D11*
X19000000Y20300000D03*
D14*
X5800000Y3500000D03*
D14*
X4700000Y3500000D03*
D11*
X13375000Y-21050000D03*
D11*
X13375000Y-19950000D03*
D11*
X-375000Y-20800000D03*
D11*
X-375000Y-19700000D03*
D11*
X-13970000Y19045000D03*
D11*
X-13970000Y20145000D03*
D15*
X-1950000Y-19185000D03*
D15*
X-1950000Y-20085000D03*
M02*
