M48
FMAT,2
METRIC,TZ
T8C0.200
T6C0.600
T5C0.650
T2C0.700
T7C0.800
T3C0.900
T4C1.000
T1C3.200
%
G90
G05
M71
T8
X33.125Y20.000
X-2.500Y-0.375
X27.000Y10.375
X0.875Y-21.125
X5.500Y-19.500
X9.500Y8.000
X-4.375Y-8.125
X13.575Y-17.250
X14.500Y17.750
X-31.875Y8.500
X13.750Y14.125
X14.550Y8.000
X-31.000Y22.000
X-0.125Y9.875
X-27.250Y-1.500
X-29.500Y-18.500
X7.250Y-16.250
X14.000Y8.625
X-1.875Y-2.325
X0.875Y0.000
X1.000Y-14.250
X2.500Y14.500
X4.000Y-15.625
X1.831Y0.411
X0.000Y-17.250
X-5.250Y-16.125
X4.750Y5.250
X-29.500Y18.500
X31.000Y-18.000
X-7.000Y5.375
X28.875Y-20.000
X-28.875Y20.000
X15.125Y8.625
X13.000Y-19.000
X26.375Y11.750
X-27.000Y-12.000
X13.125Y11.125
X-14.625Y-1.000
X29.500Y-21.375
X33.125Y-20.000
X3.625Y-2.300
X25.875Y13.750
X14.000Y11.000
X8.875Y-5.000
X-17.875Y13.375
X-4.125Y-14.325
X28.000Y11.750
X-32.500Y-21.375
X-17.450Y12.950
X0.750Y-0.875
X13.489Y10.537
X31.000Y18.000
X14.750Y-17.250
X27.250Y13.000
X-33.125Y20.000
X-1.875Y-21.000
X-7.400Y-16.500
X-32.500Y18.625
X32.500Y-18.500
X-4.250Y-7.375
X19.500Y13.750
X0.800Y1.875
X-23.250Y-6.750
X-33.125Y-20.000
X-32.500Y21.500
X-31.070Y5.695
X31.000Y-22.000
X27.625Y9.062
X21.500Y-17.500
X9.514Y8.764
X8.250Y1.250
X2.250Y12.500
X12.875Y8.625
X-30.375Y5.750
X-4.484Y-15.729
X-1.875Y0.550
X-2.500Y-14.500
X11.625Y18.500
X-27.875Y-2.950
X-32.500Y-18.500
X11.625Y0.250
X1.250Y3.000
X14.625Y-21.125
X24.375Y0.000
X-0.875Y-17.250
X-2.875Y-4.675
X27.500Y5.250
X19.625Y-16.625
X-29.500Y-0.875
X-32.375Y8.125
X29.500Y18.625
X-29.500Y-21.500
X6.988Y8.686
X-31.000Y-22.000
X-31.000Y18.000
X11.625Y15.750
X-31.000Y-18.000
X32.500Y-21.500
X13.425Y8.000
X-29.500Y21.500
X32.500Y18.500
X4.625Y2.375
X8.750Y8.000
X-16.500Y-1.000
X7.125Y-1.125
X5.750Y-16.625
X29.500Y-18.500
X14.500Y12.125
X4.000Y-14.875
X1.125Y-15.800
X-28.875Y-20.000
X-1.877Y-1.622
X6.488Y3.641
X-19.125Y5.250
X-3.854Y-4.522
X0.000Y13.750
X20.750Y0.000
X28.875Y20.000
X31.000Y22.000
X11.500Y2.750
X32.500Y21.500
X29.500Y21.500
X15.100Y12.500
X-2.125Y3.125
X11.375Y6.375
X-29.375Y-12.000
X7.125Y8.000
X8.612Y-1.265
T6
X34.100Y4.992G85X33.300Y4.992
X30.050Y13.633G85X28.950Y13.633
X30.050Y4.992G85X28.950Y4.992
X34.100Y13.633G85X33.300Y13.633
T5
X30.020Y12.203
X30.020Y6.423
T2
X-13.625Y-14.000
X-15.625Y-14.000
X-19.625Y-14.000
X-17.625Y-14.000
X-19.500Y-2.250
X-17.500Y-2.250
X-13.500Y-2.250
X-15.500Y-2.250
X19.050Y21.900
X-24.130Y21.900
X-21.590Y21.900
X-6.350Y21.900
X11.430Y21.900
X-19.050Y-21.280
X19.050Y-21.280
X8.890Y21.900
X6.350Y21.900
X-13.970Y21.900
X-1.270Y21.900
X21.590Y21.900
X-11.430Y21.900
X-24.130Y-21.280
X-16.510Y21.900
X24.130Y21.900
X24.130Y-21.280
X16.510Y21.900
X-3.810Y21.900
X-19.050Y21.900
X13.970Y21.900
X-8.890Y21.900
X1.270Y21.900
X-21.590Y-21.280
X3.810Y21.900
X21.590Y-21.280
X3.125Y-8.750
X7.125Y-8.750
X13.125Y-8.750
X11.125Y-8.750
X1.125Y-8.750
X15.125Y-8.750
X9.125Y-8.750
X-2.875Y-8.750
X-0.875Y-8.750
X5.125Y-8.750
X-13.625Y-8.750
X-9.625Y-8.750
X-15.625Y-8.750
X-7.625Y-8.750
X-19.625Y-8.750
X-17.625Y-8.750
X-11.625Y-8.750
X24.500Y8.125
X22.500Y8.125
X18.500Y8.125
X20.500Y8.125
X-6.875Y-2.250
X-8.875Y-2.250
X15.125Y-2.250
X13.125Y-2.250
T7
X-29.247Y3.548
X-26.707Y3.548
X-24.167Y3.548
X-31.787Y3.548
T3
X21.985Y-4.780
X24.525Y-8.590
X21.985Y-12.400
X21.985Y-9.860
X24.525Y-13.670
X24.525Y-6.050
X24.525Y-11.130
X21.985Y-7.320
T4
X-12.000Y-17.730
X-12.000Y-20.270
X-25.960Y-6.250
X-28.500Y-6.250
X-31.040Y-6.250
X12.790Y-14.875
X7.710Y-12.335
X15.330Y-12.335
X15.330Y-14.875
X10.250Y-12.335
X7.710Y-14.875
X12.790Y-12.335
X10.250Y-14.875
X-28.700Y11.250
X-28.700Y13.790
X-28.700Y8.710
T1
X-31.000Y20.000
X31.000Y20.000
X31.000Y-20.000
X-31.000Y-20.000
X30.875Y-14.975
X30.875Y-3.475
M30
