%FSLAX46Y46*%
%MOMM*%
%AMPS39*
21,1,1.000000,1.600000,0.000000,0.000000,90.000000*
%
%ADD39PS39*%
%AMPS40*
21,1,1.000000,1.600000,0.000000,0.000000,270.000000*
%
%ADD40PS40*%
%AMPS37*
21,1,0.510000,0.400000,0.000000,0.000000,0.000000*
%
%ADD37PS37*%
%AMPS26*
21,1,0.510000,0.400000,0.000000,0.000000,90.000000*
%
%ADD26PS26*%
%AMPS18*
21,1,0.510000,0.400000,0.000000,0.000000,180.000000*
%
%ADD18PS18*%
%AMPS10*
21,1,0.510000,0.400000,0.000000,0.000000,270.000000*
%
%ADD10PS10*%
%AMPS27*
21,1,2.500000,1.800000,0.000000,0.000000,0.000000*
%
%ADD27PS27*%
%AMPS21*
21,1,2.500000,1.800000,0.000000,0.000000,180.000000*
%
%ADD21PS21*%
%AMPS31*
21,1,0.200000,0.875000,0.000000,0.000000,0.000000*
%
%ADD31PS31*%
%AMPS33*
21,1,0.200000,0.875000,0.000000,0.000000,90.000000*
%
%ADD33PS33*%
%AMPS32*
21,1,0.200000,0.875000,0.000000,0.000000,180.000000*
%
%ADD32PS32*%
%AMPS34*
21,1,0.200000,0.875000,0.000000,0.000000,270.000000*
%
%ADD34PS34*%
%AMPS36*
21,1,2.800000,1.600000,0.000000,0.000000,90.000000*
%
%ADD36PS36*%
%AMPS29*
21,1,0.300000,1.240000,0.000000,0.000000,90.000000*
%
%ADD29PS29*%
%AMPS23*
21,1,0.600000,1.500000,0.000000,0.000000,90.000000*
%
%ADD23PS23*%
%AMPS22*
21,1,0.600000,1.500000,0.000000,0.000000,270.000000*
%
%ADD22PS22*%
%AMPS30*
21,1,0.600000,1.240000,0.000000,0.000000,90.000000*
%
%ADD30PS30*%
%AMPS16*
21,1,1.250000,1.750000,0.000000,0.000000,270.000000*
%
%ADD16PS16*%
%AMPS35*
21,1,3.200000,3.200000,0.000000,0.000000,0.000000*
%
%ADD35PS35*%
%AMPS17*
21,1,3.500000,1.750000,0.000000,0.000000,270.000000*
%
%ADD17PS17*%
%AMPS12*
21,1,1.400000,1.200000,0.000000,0.000000,0.000000*
%
%ADD12PS12*%
%AMPS13*
1,1,0.200000,-0.100000,-0.200000*
1,1,0.200000,-0.100000,0.200000*
21,1,0.400000,0.400000,0.000000,0.000000,0.000000*
21,1,0.200000,0.600000,0.000000,0.000000,0.000000*
1,1,0.200000,0.100000,-0.200000*
1,1,0.200000,0.100000,0.200000*
%
%ADD13PS13*%
%AMPS25*
1,1,0.200000,0.200000,-0.100000*
1,1,0.200000,-0.200000,-0.100000*
21,1,0.400000,0.400000,0.000000,0.000000,90.000000*
21,1,0.200000,0.600000,0.000000,0.000000,90.000000*
1,1,0.200000,0.200000,0.100000*
1,1,0.200000,-0.200000,0.100000*
%
%ADD25PS25*%
%AMPS19*
1,1,0.200000,0.100000,0.200000*
1,1,0.200000,0.100000,-0.200000*
21,1,0.400000,0.400000,0.000000,0.000000,180.000000*
21,1,0.200000,0.600000,0.000000,0.000000,180.000000*
1,1,0.200000,-0.100000,0.200000*
1,1,0.200000,-0.100000,-0.200000*
%
%ADD19PS19*%
%AMPS15*
1,1,0.200000,-0.200000,0.100000*
1,1,0.200000,0.200000,0.100000*
21,1,0.400000,0.400000,0.000000,0.000000,270.000000*
21,1,0.200000,0.600000,0.000000,0.000000,270.000000*
1,1,0.200000,-0.200000,-0.100000*
1,1,0.200000,0.200000,-0.100000*
%
%ADD15PS15*%
%AMPS24*
1,1,0.360000,0.220000,-0.220000*
1,1,0.360000,-0.220000,-0.220000*
21,1,0.800000,0.440000,0.000000,0.000000,90.000000*
21,1,0.440000,0.800000,0.000000,0.000000,90.000000*
1,1,0.360000,0.220000,0.220000*
1,1,0.360000,-0.220000,0.220000*
%
%ADD24PS24*%
%AMPS14*
1,1,0.360000,-0.220000,0.220000*
1,1,0.360000,0.220000,0.220000*
21,1,0.800000,0.440000,0.000000,0.000000,270.000000*
21,1,0.440000,0.800000,0.000000,0.000000,270.000000*
1,1,0.360000,-0.220000,-0.220000*
1,1,0.360000,0.220000,-0.220000*
%
%ADD14PS14*%
%AMPS20*
1,1,0.500000,0.375000,-0.250000*
1,1,0.500000,-0.375000,-0.250000*
21,1,1.000000,0.750000,0.000000,0.000000,90.000000*
21,1,0.500000,1.250000,0.000000,0.000000,90.000000*
1,1,0.500000,0.375000,0.250000*
1,1,0.500000,-0.375000,0.250000*
%
%ADD20PS20*%
%AMPS11*
1,1,0.500000,-0.375000,0.250000*
1,1,0.500000,0.375000,0.250000*
21,1,1.000000,0.750000,0.000000,0.000000,270.000000*
21,1,0.500000,1.250000,0.000000,0.000000,270.000000*
1,1,0.500000,-0.375000,-0.250000*
1,1,0.500000,0.375000,-0.250000*
%
%ADD11PS11*%
%AMPS28*
1,1,0.240000,0.130000,-0.180000*
1,1,0.240000,-0.130000,-0.180000*
21,1,0.600000,0.260000,0.000000,0.000000,90.000000*
21,1,0.360000,0.500000,0.000000,0.000000,90.000000*
1,1,0.240000,0.130000,0.180000*
1,1,0.240000,-0.130000,0.180000*
%
%ADD28PS28*%
%AMPS38*
1,1,0.240000,-0.130000,0.180000*
1,1,0.240000,0.130000,0.180000*
21,1,0.600000,0.260000,0.000000,0.000000,270.000000*
21,1,0.360000,0.500000,0.000000,0.000000,270.000000*
1,1,0.240000,-0.130000,-0.180000*
1,1,0.240000,0.130000,-0.180000*
%
%ADD38PS38*%
G01*
%LPD*%
G01*
%LPD*%
G75*
D10*
X7299998Y-19735000D03*
D10*
X6299998Y-19735000D03*
D10*
X6799998Y-21035000D03*
D11*
X-19200010Y8249944D03*
D11*
X-19200010Y6249944D03*
D12*
X7250000Y-2900000D03*
D12*
X5050000Y-2900000D03*
D12*
X5050000Y-4500000D03*
D12*
X7250000Y-4500000D03*
D13*
X-9199998Y-17225000D03*
D13*
X-8299998Y-17225000D03*
D14*
X11875000Y9300000D03*
D14*
X11875000Y7700000D03*
D15*
X8625000Y10450000D03*
D15*
X8625000Y9550000D03*
D16*
X-15250002Y6950000D03*
D16*
X-15250002Y9250000D03*
D16*
X-15250002Y11550000D03*
D17*
X-9150002Y9250000D03*
D18*
X-26350000Y-9999988D03*
D18*
X-26350000Y-8999988D03*
D18*
X-27650000Y-9499988D03*
D19*
X-28800000Y-11249988D03*
D19*
X-29700000Y-11249988D03*
D15*
X-5350018Y-20300000D03*
D15*
X-5350018Y-21200000D03*
D20*
X-17449994Y10000056D03*
D20*
X-17449994Y12000056D03*
D15*
X7437500Y10450000D03*
D15*
X7437500Y9550000D03*
D15*
X8549998Y-17435000D03*
D15*
X8549998Y-18335000D03*
D13*
X-27700000Y-11249988D03*
D13*
X-26800000Y-11249988D03*
D10*
X-6375000Y3775000D03*
D10*
X-7375000Y3775000D03*
D10*
X-6875000Y2475000D03*
D21*
X-21950002Y15750000D03*
D21*
X-17950002Y15750000D03*
D15*
X-6850018Y-20300000D03*
D15*
X-6850018Y-21200000D03*
D22*
X10475000Y-18625000D03*
D22*
X10475000Y-21165000D03*
D23*
X15875000Y-18625000D03*
D22*
X10475000Y-17355000D03*
D22*
X10475000Y-19895000D03*
D23*
X15875000Y-21165000D03*
D23*
X15875000Y-19895000D03*
D23*
X15875000Y-17355000D03*
D24*
X-6850018Y-19050000D03*
D24*
X-6850018Y-17450000D03*
D15*
X-25250000Y-9049988D03*
D15*
X-25250000Y-9949988D03*
D25*
X3675000Y-19585000D03*
D25*
X3675000Y-18685000D03*
D26*
X16550000Y2975000D03*
D26*
X17550000Y2975000D03*
D26*
X17050000Y4275000D03*
D27*
X-10450002Y15750000D03*
D27*
X-14450002Y15750000D03*
D26*
X-9249998Y-19875000D03*
D26*
X-8249998Y-19875000D03*
D26*
X-8749998Y-18575000D03*
D15*
X8549998Y-19935000D03*
D15*
X8549998Y-20835000D03*
D19*
X12325000Y20250000D03*
D19*
X11425000Y20250000D03*
D25*
X18125000Y-18750000D03*
D25*
X18125000Y-17850000D03*
D15*
X-9750000Y3325000D03*
D15*
X-9750000Y2425000D03*
D25*
X-31250000Y-9949988D03*
D25*
X-31250000Y-9049988D03*
D28*
X3400000Y-3150000D03*
D28*
X3400000Y-4250000D03*
D15*
X27500000Y7012500D03*
D15*
X27500000Y6112500D03*
D20*
X-19199994Y10000056D03*
D20*
X-19199994Y12000056D03*
D29*
X28900000Y8562500D03*
D29*
X28900000Y9062500D03*
D30*
X28900000Y6912500D03*
D29*
X28900000Y11062500D03*
D29*
X28900000Y8062500D03*
D29*
X28900000Y10562500D03*
D30*
X28900000Y12512500D03*
D29*
X28900000Y10062500D03*
D30*
X28900000Y11712500D03*
D29*
X28900000Y7562500D03*
D30*
X28900000Y6112500D03*
D29*
X28900000Y9562500D03*
D31*
X6550000Y62500D03*
D32*
X4950000Y6937500D03*
D32*
X4550000Y6937500D03*
D33*
X10187500Y4900000D03*
D31*
X4150000Y62500D03*
D33*
X10187500Y4500000D03*
D31*
X5750000Y62500D03*
D32*
X8550000Y6937500D03*
D33*
X10187500Y4100000D03*
D33*
X10187500Y900000D03*
D33*
X10187500Y1700000D03*
D32*
X5750000Y6937500D03*
D33*
X10187500Y2900000D03*
D34*
X3312500Y1300000D03*
D34*
X3312500Y6100000D03*
D32*
X7750000Y6937500D03*
D31*
X8550000Y62500D03*
D34*
X3312500Y2900000D03*
D31*
X4550000Y62500D03*
D32*
X6550000Y6937500D03*
D34*
X3312500Y2500000D03*
D34*
X3312500Y4100000D03*
D32*
X4150000Y6937500D03*
D34*
X3312500Y5300000D03*
D31*
X6950000Y62500D03*
D33*
X10187500Y5700000D03*
D31*
X5350000Y62500D03*
D32*
X7350000Y6937500D03*
D34*
X3312500Y3700000D03*
D31*
X4950000Y62500D03*
D31*
X8950000Y62500D03*
D32*
X8950000Y6937500D03*
D34*
X3312500Y5700000D03*
D34*
X3312500Y3300000D03*
D33*
X10187500Y2500000D03*
D32*
X8150000Y6937500D03*
D32*
X6150000Y6937500D03*
D34*
X3312500Y4900000D03*
D33*
X10187500Y5300000D03*
D33*
X10187500Y3300000D03*
D31*
X6150000Y62500D03*
D33*
X10187500Y2100000D03*
D31*
X9350000Y62500D03*
D31*
X7750000Y62500D03*
D32*
X5350000Y6937500D03*
D34*
X3312500Y4500000D03*
D33*
X10187500Y1300000D03*
D31*
X7350000Y62500D03*
D34*
X3312500Y2100000D03*
D32*
X6950000Y6937500D03*
D33*
X10187500Y3700000D03*
D32*
X9350000Y6937500D03*
D34*
X3312500Y1700000D03*
D31*
X8150000Y62500D03*
D35*
X6750000Y3500000D03*
D34*
X3312500Y900000D03*
D33*
X10187500Y6100000D03*
D15*
X10500000Y9450000D03*
D15*
X10500000Y8550000D03*
D36*
X-23200002Y11400000D03*
D36*
X-23200002Y7100000D03*
D11*
X-24950010Y16249944D03*
D11*
X-24950010Y14249944D03*
D13*
X-9199998Y-21225000D03*
D13*
X-8299998Y-21225000D03*
D25*
X-8625000Y2425000D03*
D25*
X-8625000Y3325000D03*
D24*
X-5350018Y-19050000D03*
D24*
X-5350018Y-17450000D03*
D24*
X-7200002Y8450000D03*
D24*
X-7200002Y10050000D03*
D22*
X-2350000Y12385000D03*
D22*
X-2350000Y9845000D03*
D23*
X4850000Y12385000D03*
D22*
X-2350000Y13655000D03*
D22*
X-2350000Y11115000D03*
D23*
X4850000Y9845000D03*
D23*
X4850000Y11115000D03*
D23*
X4850000Y13655000D03*
D13*
X16600000Y1875000D03*
D13*
X17500000Y1875000D03*
D37*
X-30150000Y-8999988D03*
D37*
X-30150000Y-9999988D03*
D37*
X-28850000Y-9499988D03*
D38*
X8900000Y-4250000D03*
D38*
X8900000Y-3150000D03*
D15*
X-7200002Y7200000D03*
D15*
X-7200002Y6300000D03*
D25*
X27250000Y11362500D03*
D25*
X27250000Y12262500D03*
D39*
X25950000Y14725000D03*
D40*
X19550000Y18525000D03*
D40*
X19550000Y14725000D03*
D39*
X25950000Y18525000D03*
D39*
X25700000Y37500D03*
D40*
X19300000Y3837500D03*
D40*
X19300000Y37500D03*
D39*
X25700000Y3837500D03*
D10*
X7299998Y-17235000D03*
D10*
X6299998Y-17235000D03*
D10*
X6799998Y-18535000D03*
D22*
X-3400000Y-18500000D03*
D22*
X-3400000Y-21040000D03*
D23*
X2000000Y-18500000D03*
D22*
X-3400000Y-17230000D03*
D22*
X-3400000Y-19770000D03*
D23*
X2000000Y-21040000D03*
D23*
X2000000Y-19770000D03*
D23*
X2000000Y-17230000D03*
M02*
